<svg width="424" height="100" viewBox="0 0 424 100" fill="none" xmlns="http://www.w3.org/2000/svg">
<g clip-path="url(#clip0_3_59)">
<path d="M63.5135 73.4257C67.3615 73.4257 70.4257 76.5611 70.4257 80.3378C70.4257 84.1858 67.2903 87.25 63.5135 87.25C59.7367 87.25 56.6013 84.1146 56.6013 80.3378C56.6013 76.5611 59.6655 73.4257 63.5135 73.4257ZM63.5135 83.3307C65.1525 83.3307 66.5064 81.9768 66.5064 80.3378C66.5064 78.6989 65.1525 77.3449 63.5135 77.3449C61.8745 77.3449 60.5206 78.6989 60.5206 80.3378C60.5206 81.9768 61.8745 83.3307 63.5135 83.3307ZM86.174 13.5677C86.3878 12.6413 87.1716 12 88.098 12H98.2169C99.2858 12 100.212 12.8551 100.212 13.9953C100.212 15.0642 99.357 15.9905 98.2169 15.9905H89.737L70.9957 69.8627C70.782 70.7891 69.9981 71.4304 69.0717 71.4304H16.9811V67.4399H67.4328L86.174 13.5677ZM25.8885 73.4257C29.7365 73.4257 32.8007 76.5611 32.8007 80.3378C32.8007 84.1858 29.6653 87.25 25.8885 87.25C22.0405 87.25 18.9763 84.1146 18.9763 80.3378C18.9051 76.5611 22.0405 73.4257 25.8885 73.4257ZM25.8885 83.3307C27.5275 83.3307 28.8814 81.9768 28.8814 80.3378C28.8814 78.6989 27.5275 77.3449 25.8885 77.3449C24.2495 77.3449 22.8956 78.6989 22.8956 80.3378C22.8956 81.9768 24.1783 83.3307 25.8885 83.3307ZM76.4115 27.8196L74.4162 31.8101H70.4257H13.8457C13.8457 31.8101 14.202 34.233 15.6271 37.7247H72.9198L72.4209 39.7199H16.4823C17.1236 41.1451 17.9787 42.7128 18.9763 44.3518C19.2614 44.7794 19.6177 45.2069 19.974 45.6345H70.9245L70.4257 47.6297H22.1118C27.0999 51.6203 35.2948 53.5443 40.3542 53.5443C44.0597 53.5443 66.2214 53.5443 68.3591 53.5443H68.5017L66.5064 57.5348C66.5064 57.5348 46.625 57.5348 42.7057 57.5348C31.3042 57.5348 21.9692 54.0431 16.9098 47.6297C10.1402 38.9361 9.00001 27.8196 9.00001 27.8196H76.4115ZM22.0405 47.6297L20.1165 45.777C20.6866 46.4183 21.3279 47.0597 22.0405 47.6297Z" fill="#0866FF"/>
</g>
<path d="M140.641 40.5137C140.641 41.7955 140.442 42.9447 140.044 43.9613C139.691 44.9778 139.182 45.8839 138.519 46.6795C137.856 47.4751 137.083 48.1823 136.199 48.8011C135.315 49.4198 134.343 49.9944 133.282 50.5248C133.768 50.7016 134.343 50.9889 135.006 51.3867C135.669 51.7403 136.309 52.2486 136.928 52.9116C137.547 53.5745 138.055 54.4364 138.453 55.4972C138.895 56.5138 139.116 57.7734 139.116 59.2762C139.116 61.2652 138.696 63.0994 137.856 64.779C137.017 66.4586 135.757 67.9171 134.077 69.1547C132.442 70.3481 130.409 71.2983 127.978 72.0055C125.591 72.6685 122.829 73 119.691 73H100L108.95 30.9005H126.387C128.111 30.9005 129.812 31.0331 131.492 31.2983C133.216 31.5193 134.74 31.9833 136.066 32.6905C137.437 33.3977 138.542 34.3922 139.381 35.674C140.221 36.9115 140.641 38.5248 140.641 40.5137ZM122.608 48.5359C123.58 48.5359 124.398 48.2486 125.061 47.674C125.768 47.0994 126.343 46.3922 126.785 45.5524C127.227 44.6684 127.558 43.7403 127.779 42.7679C128 41.7513 128.111 40.8452 128.111 40.0497C128.111 38.7679 127.801 37.685 127.182 36.801C126.608 35.8729 125.68 35.4088 124.398 35.4088H122.409L119.558 48.5359H122.608ZM117.834 68.8232C119.16 68.8232 120.265 68.4475 121.149 67.6961C122.033 66.9447 122.762 66.0166 123.337 64.9116C123.912 63.8066 124.309 62.6574 124.53 61.4641C124.796 60.2265 124.928 59.1436 124.928 58.2154C124.928 56.6685 124.597 55.453 123.934 54.569C123.315 53.6408 122.298 53.1768 120.884 53.1768H118.431L115.182 68.8232H117.834ZM150.193 30.9005H164.579L156.756 67.4309H170.215L169.088 73H141.242L150.193 30.9005ZM189.503 57.9502C189.282 58.9226 189.106 59.7624 188.973 60.4696C188.84 61.1768 188.774 61.8398 188.774 62.4585C188.774 64.0055 189.305 65.2431 190.365 66.1713C191.47 67.0994 193.084 67.5635 195.205 67.5635C196.752 67.5635 198.012 67.2983 198.984 66.7679C200.001 66.2376 200.818 65.5304 201.437 64.6464C202.1 63.7624 202.608 62.7458 202.962 61.5967C203.36 60.4475 203.691 59.232 203.957 57.9502L209.592 30.9005H215.625L209.857 58.0828C209.415 60.2044 208.774 62.1933 207.934 64.0497C207.095 65.9061 205.879 67.5414 204.288 68.9558C202.741 70.3702 200.73 71.4972 198.255 72.337C195.78 73.1326 192.708 73.5304 189.039 73.5304C183.956 73.5304 180.2 72.7127 177.769 71.0773C175.338 69.3978 174.122 66.8342 174.122 63.3867C174.122 61.8398 174.321 59.8729 174.719 57.4862C175.117 55.0994 175.625 52.5138 176.244 49.7292L180.288 30.9005H195.338L189.503 57.9502ZM222.512 30.9005H250.424L249.363 35.9392H235.838L233.054 48.7348H244.391L243.33 53.7071H231.993L228.943 67.895H242.468L241.474 73H213.562L222.512 30.9005ZM296.988 69.4199C295.883 69.9503 294.734 70.4807 293.54 71.011C292.391 71.4972 291.154 71.9392 289.828 72.337C288.502 72.6906 287.043 72.9779 285.452 73.1989C283.905 73.4199 282.203 73.5304 280.347 73.5304C274.424 73.5304 269.85 72.2044 266.623 69.5525C263.441 66.9005 261.85 62.4806 261.85 56.2928C261.85 52.7127 262.402 49.3535 263.507 46.2154C264.612 43.0331 266.247 40.2707 268.413 37.9281C270.579 35.5414 273.253 33.6629 276.435 32.2927C279.618 30.9226 283.264 30.2375 287.375 30.2375C289.319 30.2375 291.087 30.3701 292.678 30.6353C294.314 30.9005 295.772 31.2541 297.054 31.696C298.38 32.0938 299.551 32.5358 300.568 33.022C301.629 33.5082 302.579 33.9723 303.419 34.4143L301.032 46.7458H289.098C289.142 46.3038 289.187 45.7292 289.231 45.022C289.319 44.3149 289.386 43.6077 289.43 42.9005C289.474 42.1491 289.518 41.4198 289.562 40.7126C289.607 40.0055 289.629 39.4088 289.629 38.9226C289.629 38.569 289.607 38.1712 289.562 37.7292C289.518 37.243 289.408 36.7789 289.231 36.3369C289.054 35.895 288.767 35.5414 288.369 35.2762C288.015 34.9668 287.529 34.8121 286.91 34.8121C285.761 34.8121 284.7 35.2983 283.728 36.2706C282.8 37.1988 281.96 38.4585 281.209 40.0497C280.457 41.5966 279.794 43.3646 279.22 45.3535C278.645 47.3425 278.159 49.3756 277.761 51.453C277.408 53.4861 277.12 55.4972 276.899 57.4862C276.723 59.4751 276.634 61.221 276.634 62.7237C276.634 63.1657 276.656 63.7182 276.7 64.3812C276.745 65.0442 276.877 65.6851 277.098 66.3039C277.319 66.9226 277.651 67.453 278.093 67.895C278.579 68.337 279.22 68.558 280.015 68.558C281.386 68.558 282.712 67.7182 283.993 66.0387C285.275 64.3149 286.402 61.2652 287.375 56.8895H299.64L296.988 69.4199ZM338.668 73H323.154L322.226 62.4585H309.961L305.253 73H298.822L318.38 30.9005H334.093L338.668 73ZM312.148 57.6188H321.762L320.237 39.5856L312.148 57.6188ZM383.125 40.9115C383.125 43.5193 382.396 45.9281 380.937 48.1381C379.479 50.348 377.07 52.0276 373.711 53.1768L381.401 73H366.617L360.782 54.6353H360.053L356.142 73H341.821L350.771 30.9005H368.208C370.241 30.9005 372.164 31.0331 373.976 31.2983C375.788 31.5193 377.357 32.0054 378.683 32.7568C380.053 33.464 381.136 34.4806 381.932 35.8066C382.727 37.0883 383.125 38.79 383.125 40.9115ZM364.031 50.3922C365.18 50.3922 366.153 50.0165 366.948 49.2651C367.788 48.4696 368.451 47.5193 368.937 46.4143C369.468 45.3093 369.843 44.1381 370.064 42.9005C370.285 41.6187 370.396 40.5137 370.396 39.5856C370.396 38.4364 370.197 37.464 369.799 36.6684C369.401 35.8287 368.539 35.4088 367.213 35.4088H364.23L360.915 50.3922H364.031ZM422.015 35.9392H411.341L403.451 73H389.131L397.02 35.9392H386.479L387.672 30.9005H423.142L422.015 35.9392Z" fill="#0866FF"/>
<defs>
<clipPath id="clip0_3_59">
<rect width="100" height="100" fill="white" transform="matrix(-1 0 0 1 100 0)"/>
</clipPath>
</defs>
</svg>
